<svg aria-hidden="true" style="position:absolute;width:0;height:0;overflow:hidden" xmlns="http://www.w3.org/2000/svg">
  <defs>
    <symbol id="1arrow" viewBox="0 0 32 32">
      <path fill="none" stroke="#e1016e" style="stroke:var(--color1, #e1016e)" stroke-linecap="round" stroke-width="1.333" d="m4 9.333 11.333 12 11.333-12"/>
    </symbol>
    <symbol id="1begin" viewBox="0 0 32 32">
      <path d="M22.401 4c0-1.175.958-2.133 2.133-2.133h2.133c1.175 0 2.133.958 2.133 2.133v20a2.137 2.137 0 0 1-2.133 2.133h-2.133A2.137 2.137 0 0 1 22.401 24V4zm2.133-.533a.537.537 0 0 0-.533.533v20c0 .292.242.533.533.533h2.133A.537.537 0 0 0 27.2 24V4a.537.537 0 0 0-.533-.533h-2.133zM12.799 8.254c0-1.175.958-2.133 2.133-2.133h2.133c1.175 0 2.133.958 2.133 2.133v15.747a2.137 2.137 0 0 1-2.133 2.133h-2.133a2.137 2.137 0 0 1-2.133-2.133V8.254zm2.133-.533a.537.537 0 0 0-.533.533v15.747c0 .292.242.533.533.533h2.133a.537.537 0 0 0 .533-.533V8.254a.537.537 0 0 0-.533-.533h-2.133zM3.2 12.507c0-1.175.958-2.133 2.133-2.133h2.133c1.175 0 2.133.958 2.133 2.133V24a2.137 2.137 0 0 1-2.133 2.133H5.333A2.137 2.137 0 0 1 3.2 24V12.507zm2.133-.533a.537.537 0 0 0-.533.533V24c0 .292.242.533.533.533h2.133A.537.537 0 0 0 7.999 24V12.507a.537.537 0 0 0-.533-.533H5.333zM3.2 29.334a.8.8 0 0 1 .8-.8h24a.8.8 0 1 1 0 1.6H4a.8.8 0 0 1-.8-.8z"/>
    </symbol>
    <symbol id="1check" viewBox="0 0 32 32">
      <path fill="none" stroke="#e1016e" style="stroke:var(--color1, #e1016e)" stroke-linecap="round" stroke-width="4" d="m5.333 14.456 5.379 6.87a1.333 1.333 0 0 0 2.1 0L25.334 5.333"/>
    </symbol>
    <symbol id="1clients" viewBox="0 0 32 32">
      <path d="M15.053 3.6a5.867 5.867 0 1 0 0 11.735 5.867 5.867 0 0 0 0-11.735zM7.586 9.467a7.467 7.467 0 1 1 14.934 0 7.467 7.467 0 0 1-14.934 0zm7.467 11.466c-6.04 0-10.653 3.961-10.653 8.533a.8.8 0 1 1-1.6 0c0-5.748 5.653-10.133 12.253-10.133a.8.8 0 1 1 0 1.6zm8.267 0a3.467 3.467 0 1 0 0 6.933 3.467 3.467 0 0 0 0-6.933zM18.253 24.4a5.067 5.067 0 1 1 9.143 3.01.807.807 0 0 1 .223.157l1.333 1.333a.8.8 0 0 1-1.131 1.131l-1.333-1.333a.786.786 0 0 1-.157-.223 5.067 5.067 0 0 1-8.077-4.076z"/>
    </symbol>
    <symbol id="1close" viewBox="0 0 36 32">
      <path fill="none" stroke="#e1016e" style="stroke:var(--color1, #e1016e)" stroke-linecap="round" stroke-width="3" d="m6 6 21.92 21.92M6 28 27.92 6.08"/>
    </symbol>
    <symbol id="1Default" viewBox="0 0 36 32">
      <path fill="#e1016e" stroke="#e1016e" style="stroke:var(--color1, #e1016e)" stroke-linecap="round" stroke-width="3" d="M2 6h32M2 16h32M2 26h32"/>
    </symbol>
    <symbol id="1down" viewBox="0 0 32 32">
      <path fill="none" stroke="#e1016e" style="stroke:var(--color1, #e1016e)" stroke-linecap="round" stroke-width="1.333" d="m26.667 21.334-11.333-12-11.333 12"/>
    </symbol>
    <symbol id="1growth" viewBox="0 0 32 32">
      <path d="M2.667 1.866a.8.8 0 0 1 .8.8v22.667c0 1.771 1.428 3.2 3.2 3.2h22.667a.8.8 0 1 1 0 1.6H6.667a4.795 4.795 0 0 1-4.8-4.8V2.666a.8.8 0 0 1 .8-.8zm25.854 6.86a.799.799 0 0 1 .087 1.128l-6.135 7.162a3.472 3.472 0 0 1-5.078.189l-1.27-1.27a1.861 1.861 0 0 0-2.731.106l-.001.001-6.118 7.144a.799.799 0 1 1-1.215-1.041l6.122-7.149c1.311-1.519 3.651-1.632 5.08-.188l.002.002 1.263 1.263a1.87 1.87 0 0 0 2.734-.103l.001-.001 6.131-7.158a.799.799 0 0 1 1.128-.087z"/>
    </symbol>
    <symbol id="1jun" viewBox="0 0 32 32">
      <path d="M19.251 2.448c-.881-.586-1.998-.85-3.069-.848s-2.186.269-3.063.846L5.093 7.672c-3.057 1.996-3.057 6.464 0 8.46l1.795 1.172a.798.798 0 0 0-.025.196l-.013 6.253v.002c0 1.045.399 2.082 1.004 2.922s1.461 1.547 2.45 1.877l4.257 1.415c.473.155 1.05.22 1.59.22s1.12-.065 1.596-.218l4.262-1.416c.989-.33 1.844-1.036 2.45-1.877s1.004-1.877 1.004-2.922v-6.187a.787.787 0 0 0-.04-.249l1.812-1.189a5.04 5.04 0 0 0 .654-.508v4.439a.8.8 0 1 0 1.6 0v-7.631c.182-1.778-.569-3.638-2.254-4.744l-7.984-5.238zm8.665 9.41a.809.809 0 0 0-.026.204v.278a3.415 3.415 0 0 1-1.532 2.453l-7.987 5.24c-.561.369-1.352.578-2.187.578s-1.626-.21-2.187-.578l-.002-.001-8.027-5.24c-2.09-1.364-2.09-4.415 0-5.78l8.029-5.228c.563-.37 1.355-.582 2.189-.583s1.623.208 2.182.581l.005.003 7.987 5.24a3.427 3.427 0 0 1 1.559 2.834zm-8.667 9.512 4.614-3.027v5.412c0 .648-.255 1.365-.703 1.988s-1.045 1.089-1.656 1.293h-.001l-4.249 1.412c-.27.086-.67.141-1.103.141-.435 0-.831-.055-1.091-.14l-.002-.001-4.249-1.412-2.35-7.724.002-.982 4.657 3.04c.879.577 1.994.841 3.065.841s2.187-.264 3.066-.842zm-10.79-2.057 2.349 7.723c-.611-.204-1.208-.671-1.656-1.293s-.702-1.339-.703-1.987v-.001l.009-4.442z"/>
    </symbol>
    <symbol id="1left" viewBox="0 0 32 32">
      <path fill="none" stroke="#e1016e" style="stroke:var(--color1, #e1016e)" stroke-linecap="round" stroke-width="4" d="M21.333 4 10.359 14.364a1.334 1.334 0 0 0 0 1.939l10.974 10.364"/>
    </symbol>
    <symbol id="1manager" viewBox="0 0 32 32">
      <path d="M3.969 6.24A4.24 4.24 0 0 1 8.209 2a4.231 4.231 0 0 1 4.24 4.24 4.23 4.23 0 0 1-4.078 4.239.802.802 0 0 1-.155-.009h-.002a.802.802 0 0 1-.155.009 4.252 4.252 0 0 1-4.091-4.234v-.006zm1.6-.003a2.654 2.654 0 0 0 2.489 2.641c.104-.01.212-.01.316 0a2.63 2.63 0 0 0 2.475-2.638 2.631 2.631 0 0 0-2.64-2.64 2.64 2.64 0 0 0-2.64 2.637zM24.011 3.6a2.631 2.631 0 0 0-2.64 2.64 2.632 2.632 0 0 0 2.475 2.638c.104-.01.212-.01.316 0a2.653 2.653 0 0 0 2.489-2.641 2.64 2.64 0 0 0-2.64-2.637zm-4.24 2.64A4.231 4.231 0 0 1 24.011 2a4.24 4.24 0 0 1 4.24 4.24v.006a4.252 4.252 0 0 1-4.091 4.234.802.802 0 0 1-.155-.009h-.002a.802.802 0 0 1-.155.009 4.231 4.231 0 0 1-4.078-4.239zm-3.76 7.319a2.631 2.631 0 0 0-2.64 2.64 2.632 2.632 0 0 0 2.475 2.638 1.7 1.7 0 0 1 .319 0c1.372-.07 2.474-1.216 2.485-2.641a2.64 2.64 0 0 0-2.64-2.637zm-4.24 2.64a4.232 4.232 0 0 1 4.24-4.24 4.24 4.24 0 0 1 4.24 4.24v.006c-.016 2.287-1.816 4.168-4.097 4.234a.823.823 0 0 1-.149-.01h-.002a.802.802 0 0 1-.155.009 4.231 4.231 0 0 1-4.078-4.239zm-7.118-1.666c-.773.515-1.053 1.116-1.053 1.614s.281 1.099 1.054 1.614l.001.001c1.21.81 3.006 1.116 4.676.836a.8.8 0 0 1 .265 1.578c-1.983.333-4.213-.001-5.83-1.084C2.66 18.354 2 17.301 2 16.147s.659-2.208 1.766-2.946l.001-.001c1.63-1.081 3.887-1.416 5.874-1.068a.8.8 0 0 1-.276 1.576c-1.666-.292-3.488.013-4.712.825zm17.926-2.401a.8.8 0 0 0 .276 1.576c1.666-.292 3.488.013 4.712.825h-.001l.444-.666-.442.667-.001-.001c.773.515 1.053 1.116 1.053 1.614s-.281 1.099-1.054 1.614l-.001.001c-1.21.81-3.006 1.116-4.676.836a.8.8 0 1 0-.264 1.578c1.983.333 4.213-.001 5.831-1.084l-.445-.665.444.666.001-.001c1.106-.738 1.765-1.79 1.765-2.945s-.659-2.208-1.766-2.946l-.001-.001c-1.63-1.081-3.887-1.416-5.874-1.068zm-6.443 9.847c1.528 0 3.099.381 4.319 1.194 1.107.738 1.766 1.791 1.766 2.946s-.659 2.208-1.766 2.946c-1.226.819-2.796 1.204-4.324 1.204s-3.099-.385-4.325-1.205l.445-.665-.444.666-.001-.001c-1.106-.738-1.765-1.791-1.765-2.945s.659-2.208 1.766-2.946l.002-.001c1.226-.812 2.799-1.193 4.327-1.193zm-3.442 2.526c-.772.515-1.053 1.115-1.053 1.614s.281 1.099 1.054 1.614l.001.001c.908.607 2.15.935 3.435.935s2.528-.328 3.435-.935l.001-.001c.773-.515 1.054-1.116 1.054-1.614s-.281-1.099-1.054-1.614c-.9-.6-2.143-.926-3.431-.926s-2.535.325-3.442.926z"/>
    </symbol>
    <symbol id="1point" viewBox="0 0 32 32">
      <path fill="#e1016e" style="fill:var(--color1, #e1016e)" d="M8 2.667h16A5.333 5.333 0 0 1 29.333 8v16A5.333 5.333 0 0 1 24 29.333H8A5.333 5.333 0 0 1 2.667 24V8A5.333 5.333 0 0 1 8 2.667z"/>
    </symbol>
    <symbol id="1purch" viewBox="0 0 32 32">
      <path d="M17.154 3.821c.189-.187.613-.354 1.806-.354h7.413c1.194 0 1.618.167 1.806.354.187.185.354.599.354 1.779v1.014H16.8V5.6c0-1.179.167-1.594.354-1.779zM30.133 5.6v5.48c0 1.167-.126 2.22-.826 2.914-.698.693-1.754.819-2.934.819H18.96c-1.179 0-2.236-.126-2.934-.819-.7-.695-.826-1.747-.826-2.914V5.6c0-1.167.126-2.22.826-2.914.698-.693 1.754-.819 2.934-.819h7.413c1.179 0 2.236.126 2.934.819.7.695.826 1.747.826 2.914zm-1.6 2.614H16.8v2.866c0 1.179.167 1.594.354 1.779.189.187.613.354 1.806.354h7.413c1.194 0 1.618-.167 1.806-.354.187-.185.354-.6.354-1.779V8.214zM10.508 3.596l-.595.992a.8.8 0 0 0 1.372.824l1.4-2.333a.801.801 0 0 0-.686-1.212A10.126 10.126 0 0 0 1.866 12a.8.8 0 1 0 1.6 0c0-4.21 3.037-7.7 7.043-8.404zM3.82 19.154c-.187.185-.354.599-.354 1.779v1.014h11.733v-1.014c0-1.179-.167-1.594-.354-1.779-.189-.187-.613-.355-1.806-.355H5.626c-1.194 0-1.618.167-1.806.355zm12.98 1.779v5.48c0 1.167-.126 2.22-.826 2.914-.698.693-1.754.819-2.934.819H5.627c-1.179 0-2.236-.126-2.934-.819-.7-.695-.826-1.747-.826-2.914v-5.48c0-1.167.126-2.22.826-2.914.698-.693 1.754-.819 2.934-.819h7.413c1.179 0 2.236.126 2.934.819.7.695.826 1.747.826 2.914zm-1.6 2.614H3.467v2.866c0 1.179.167 1.594.354 1.779.189.187.613.354 1.806.354h7.413c1.194 0 1.618-.167 1.806-.354.187-.185.354-.599.354-1.779v-2.866zm14.132-4.346a.8.8 0 0 0-.8.8c0 4.21-3.037 7.7-7.043 8.404l.595-.992a.8.8 0 0 0-1.372-.824l-1.4 2.333a.801.801 0 0 0 .686 1.212 10.126 10.126 0 0 0 10.133-10.133.8.8 0 0 0-.8-.8z"/>
    </symbol>
    <symbol id="1right" viewBox="0 0 32 32">
      <path fill="none" stroke="#e1016e" style="stroke:var(--color1, #e1016e)" stroke-linecap="round" stroke-width="4" d="m9.333 26.667 10.974-10.364a1.334 1.334 0 0 0 0-1.939L9.333 4"/>
    </symbol>
    <symbol id="1search" viewBox="0 0 32 32">
      <path d="M15.334 3.466c-6.558 0-11.867 5.308-11.867 11.867S8.776 27.2 15.334 27.2c6.558 0 11.867-5.308 11.867-11.867a.8.8 0 1 1 1.6 0c0 7.442-6.025 13.467-13.467 13.467S1.867 22.775 1.867 15.333 7.892 1.866 15.334 1.866a.8.8 0 1 1 0 1.6zm2.533 3.2a.8.8 0 0 1 .8-.8h8a.8.8 0 1 1 0 1.6h-8a.8.8 0 0 1-.8-.8zm0 4a.8.8 0 0 1 .8-.8h4a.8.8 0 1 1 0 1.6h-4a.8.8 0 0 1-.8-.8zm8.234 16.566a.8.8 0 0 1 1.131-1.131l2.667 2.667a.8.8 0 0 1-1.131 1.131l-2.667-2.667z"/>
    </symbol>
    <symbol id="1spec" viewBox="0 0 32 32">
      <path d="M16 4.467C9.63 4.467 4.467 9.631 4.467 16S9.631 27.533 16 27.533 27.533 22.369 27.533 16c0-6.37-5.164-11.533-11.533-11.533zM2.867 16C2.867 8.747 8.747 2.867 16 2.867S29.133 8.747 29.133 16c0 7.253-5.88 13.133-13.133 13.133S2.867 23.253 2.867 16zM16 7.8a.8.8 0 0 1 .8.8v.852h.584c1.995 0 3.538 1.678 3.538 3.674a.8.8 0 1 1-1.6 0c0-1.186-.899-2.074-1.938-2.074H16.8v4.375l1.961.681c.545.193 1.119.477 1.542 1.016.43.548.619 1.252.619 2.118 0 1.789-1.397 3.304-3.193 3.304H16.8v.853a.8.8 0 1 1-1.6 0v-.853h-.567c-1.995 0-3.538-1.678-3.538-3.674a.8.8 0 1 1 1.6 0c0 1.186.899 2.074 1.938 2.074h.567v-4.381l-1.944-.675c-.545-.193-1.119-.477-1.542-1.016-.43-.548-.619-1.252-.619-2.118 0-1.789 1.397-3.304 3.193-3.304h.912V8.6a.8.8 0 0 1 .8-.8zm-.8 3.252h-.912c-.844 0-1.593.73-1.593 1.704 0 .638.138.952.278 1.131.148.189.387.342.815.494l.002.001 1.409.49v-3.82zm1.6 6.07v3.825h.929c.844 0 1.593-.73 1.593-1.704 0-.638-.137-.952-.278-1.131-.148-.189-.387-.342-.815-.494l-.002-.001-1.426-.496z"/>
    </symbol>
    <symbol id="wb" viewBox="0 0 33 32">
<path fill="#000" style="fill: var(--color1, #000)" d="M6.877 0.398l18.948 1.735c2.4 0.22 4.167 2.343 3.948 4.743l-1.735 18.948c-0.22 2.4-2.343 4.167-4.743 3.948l-18.948-1.735c-2.4-0.22-4.167-2.343-3.948-4.743l1.735-18.948c0.22-2.4 2.343-4.167 4.743-3.948z"></path>
<path fill="#fff" style="fill: var(--color2, #fff)" d="M7.148 19.205l-1.537-9.833 1.586 0.145 1.181 7.552 2.667-7.201 1.477 0.137 1.318 7.604 2.544-7.249 1.586 0.142-3.299 9.39-1.838-0.171-1.273-7.354-2.589 7.002-1.824-0.164z"></path>
<path fill="#fff" style="fill: var(--color2, #fff)" d="M24.779 18.041c-0.072 0.787-0.392 1.417-0.971 1.888s-1.227 0.681-1.998 0.61l-3.861-0.353 0.879-9.605 3.58 0.328c0.739 0.068 1.34 0.391 1.803 0.936 0.473 0.558 0.666 1.211 0.597 1.966-0.077 0.842-0.449 1.457-1.095 1.877 0.751 0.516 1.156 1.357 1.065 2.355zM20.182 12.201l-0.231 2.525 2.103 0.192c0.656 0.060 1.206-0.448 1.271-1.158s-0.384-1.309-1.039-1.369l-2.103-0.191zM21.958 19.056c0.688 0.063 1.282-0.475 1.351-1.228s-0.418-1.39-1.106-1.453l-2.383-0.218-0.247 2.693 2.383 0.218 0.001-0.013z"></path>
</symbol>
    <symbol id="icon-charm_menu-hamburger" viewBox="0 0 47 32">
<path stroke-linejoin="round" stroke-linecap="round" stroke-miterlimit="4" stroke-width="4.3636" d="M1.96 29.154h42.965M1.96 15.615h42.965M1.96 2.077h42.965"></path>
</symbol>
<symbol id="plus" viewBox="0 0 32 32">
<path fill="none" stroke="#fff" style="stroke: var(--color1, #fff)" stroke-linejoin="miter" stroke-linecap="round" stroke-miterlimit="4" stroke-width="1.7778" d="M16 1.778v28.444"></path>
<path fill="none" stroke="#fff" style="stroke: var(--color1, #fff)" stroke-linejoin="miter" stroke-linecap="round" stroke-miterlimit="4" stroke-width="1.7778" d="M30.222 16h-28.444"></path>
</symbol>
  </defs>
</svg>
