<svg width="80" height="80" viewBox="0 0 80 80" fill="none" xmlns="http://www.w3.org/2000/svg">
<path fill-rule="evenodd" clip-rule="evenodd" d="M38.3346 8.66602C21.9392 8.66602 8.66797 21.9372 8.66797 38.3327C8.66797 54.7281 21.9392 67.9993 38.3346 67.9993C54.7301 67.9993 68.0013 54.7281 68.0013 38.3327C68.0013 37.2281 68.8967 36.3327 70.0013 36.3327C71.1059 36.3327 72.0013 37.2281 72.0013 38.3327C72.0013 56.9372 56.9392 71.9993 38.3346 71.9993C19.7301 71.9993 4.66797 56.9372 4.66797 38.3327C4.66797 19.7281 19.7301 4.66602 38.3346 4.66602C39.4392 4.66602 40.3346 5.56145 40.3346 6.66602C40.3346 7.77059 39.4392 8.66602 38.3346 8.66602ZM44.668 16.666C44.668 15.5614 45.5634 14.666 46.668 14.666H66.668C67.7725 14.666 68.668 15.5614 68.668 16.666C68.668 17.7706 67.7725 18.666 66.668 18.666H46.668C45.5634 18.666 44.668 17.7706 44.668 16.666ZM44.668 26.666C44.668 25.5614 45.5634 24.666 46.668 24.666H56.668C57.7725 24.666 58.668 25.5614 58.668 26.666C58.668 27.7706 57.7725 28.666 56.668 28.666H46.668C45.5634 28.666 44.668 27.7706 44.668 26.666ZM65.2537 68.0802C64.4727 67.2992 64.4727 66.0328 65.2537 65.2518C66.0348 64.4707 67.3011 64.4707 68.0822 65.2518L74.7488 71.9185C75.5299 72.6995 75.5299 73.9658 74.7488 74.7469C73.9678 75.5279 72.7015 75.5279 71.9204 74.7469L65.2537 68.0802Z" fill="url(#paint0_linear_69_843)"/>
<defs>
<linearGradient id="paint0_linear_69_843" x1="81.0099" y1="87.207" x2="-1.22187" y2="71.2709" gradientUnits="userSpaceOnUse">
<stop stop-color="#E5006D"/>
<stop offset="0.1671" stop-color="#C90171"/>
<stop offset="0.4658" stop-color="#961975"/>
<stop offset="0.714" stop-color="#6F1F78"/>
<stop offset="0.899" stop-color="#56207A"/>
<stop offset="1" stop-color="#4C217A"/>
</linearGradient>
</defs>
</svg>
