<svg width="80" height="80" viewBox="0 0 80 80" fill="none" xmlns="http://www.w3.org/2000/svg">
<path fill-rule="evenodd" clip-rule="evenodd" d="M6.66797 4.66602C7.77254 4.66602 8.66797 5.56145 8.66797 6.66602V63.3327C8.66797 67.7614 12.2392 71.3327 16.668 71.3327H73.3346C74.4392 71.3327 75.3346 72.2281 75.3346 73.3327C75.3346 74.4372 74.4392 75.3327 73.3346 75.3327H16.668C10.0301 75.3327 4.66797 69.9706 4.66797 63.3327V6.66602C4.66797 5.56145 5.5634 4.66602 6.66797 4.66602ZM71.3024 21.8151C72.1413 22.5337 72.2388 23.7962 71.5202 24.6351L56.1869 42.5351L56.1816 42.5412C52.8909 46.3515 47.0445 46.5723 43.4871 43.0149L40.3119 39.8396C38.4166 37.9213 35.2713 38.0391 33.4842 40.1049C33.4833 40.1059 33.4825 40.1069 33.4816 40.1079L18.1871 57.9682C17.4686 58.8072 16.2061 58.9049 15.3671 58.1864C14.5281 57.468 14.4304 56.2054 15.1489 55.3664L30.4543 37.4935C33.733 33.6971 39.5822 33.4145 43.1531 37.024C43.1545 37.0255 43.156 37.0269 43.1574 37.0284L46.3155 40.1865C48.2239 42.0948 51.3753 41.9832 53.1517 39.9297C53.1526 39.9287 53.1535 39.9277 53.1543 39.9267L68.4824 22.0329C69.201 21.194 70.4635 21.0965 71.3024 21.8151Z" fill="url(#paint0_linear_69_852)"/>
<defs>
<linearGradient id="paint0_linear_69_852" x1="81.0099" y1="87.207" x2="-1.22187" y2="71.2709" gradientUnits="userSpaceOnUse">
<stop stop-color="#E5006D"/>
<stop offset="0.1671" stop-color="#C90171"/>
<stop offset="0.4658" stop-color="#961975"/>
<stop offset="0.714" stop-color="#6F1F78"/>
<stop offset="0.899" stop-color="#56207A"/>
<stop offset="1" stop-color="#4C217A"/>
</linearGradient>
</defs>
</svg>
