<svg width="80" height="80" viewBox="0 0 80 80" fill="none" xmlns="http://www.w3.org/2000/svg">
<path fill-rule="evenodd" clip-rule="evenodd" d="M9.92188 15.6C9.92188 9.76716 14.6456 5 20.5219 5C26.3931 5 31.1219 9.72877 31.1219 15.6C31.1219 21.3441 26.6023 25.9931 20.9276 26.1987C20.798 26.2034 20.6681 26.1955 20.54 26.175C20.5396 26.175 20.5391 26.175 20.5385 26.175C20.538 26.175 20.5375 26.175 20.5371 26.175C20.4089 26.1955 20.2791 26.2034 20.1495 26.1987C14.4723 25.993 9.96286 21.3448 9.92193 15.6143L9.92188 15.6ZM13.9219 15.5929C13.9509 19.141 16.6937 21.9913 20.1439 22.1942C20.4042 22.1686 20.6729 22.1686 20.9332 22.1942C24.3878 21.9912 27.1219 19.1381 27.1219 15.6C27.1219 11.9379 24.184 9 20.5219 9C16.8672 9 13.9257 11.9623 13.9219 15.5929ZM60.0277 9C56.3656 9 53.4277 11.9379 53.4277 15.6C53.4277 19.1381 56.1618 21.9912 59.6164 22.1942C59.8767 22.1686 60.1454 22.1686 60.4057 22.1942C63.8559 21.9913 66.5988 19.1409 66.6277 15.5927C66.6238 11.9622 63.6823 9 60.0277 9ZM49.4277 15.6C49.4277 9.72877 54.1565 5 60.0277 5C65.904 5 70.6277 9.76716 70.6277 15.6L70.6277 15.6143C70.5867 21.3448 66.0773 25.993 60.4001 26.1987C60.2705 26.2034 60.1407 26.1955 60.0126 26.175C60.0121 26.175 60.0116 26.175 60.0111 26.175C60.0105 26.175 60.01 26.175 60.0096 26.175C59.8815 26.1955 59.7517 26.2034 59.622 26.1987C53.9473 25.9931 49.4277 21.3441 49.4277 15.6ZM40.0264 33.8984C36.3643 33.8984 33.4264 36.8363 33.4264 40.4984C33.4264 44.0365 36.1605 46.8896 39.6151 47.0926C39.8783 47.0668 40.1501 47.0671 40.4132 47.0935C43.8427 46.9177 46.5974 44.0537 46.6264 40.4912C46.6225 36.8607 43.681 33.8984 40.0264 33.8984ZM29.4264 40.4984C29.4264 34.6272 34.1552 29.8984 40.0264 29.8984C45.9027 29.8984 50.6264 34.6656 50.6264 40.4984L50.6264 40.5127C50.5855 46.2303 46.0857 50.9324 40.3844 51.0976C40.2595 51.1012 40.1346 51.0931 40.0113 51.0735C40.0108 51.0735 40.0103 51.0734 40.0098 51.0734C40.0092 51.0734 40.0087 51.0735 40.0083 51.0735C39.8802 51.0939 39.7504 51.1018 39.6207 51.0971C33.946 50.8915 29.4264 46.2425 29.4264 40.4984ZM11.6327 36.3319C14.6921 34.3028 19.2483 33.5404 23.4132 34.27C24.5012 34.4606 25.5377 33.7331 25.7283 32.6451C25.9189 31.5571 25.1914 30.5206 24.1034 30.33C19.1359 29.4598 13.4932 30.2969 9.4192 33.0002L9.4156 33.0026C6.64857 34.8473 5 37.4796 5 40.3667C5 43.2532 6.64785 45.885 9.41379 47.7296C13.4564 50.4365 19.0314 51.2715 23.9895 50.4391C25.0788 50.2562 25.8136 49.2249 25.6307 48.1356C25.4478 47.0462 24.4165 46.3114 23.3272 46.4943C19.1526 47.1951 14.662 46.4305 11.638 44.405L11.6344 44.4026C9.70143 43.1139 9 41.6129 9 40.3667C9 39.1208 9.70102 37.6203 11.6327 36.3319ZM56.4475 30.3305C61.415 29.4603 67.0577 30.2974 71.1317 33.0007L71.1353 33.0031C73.9024 34.8478 75.5509 37.4801 75.5509 40.3672C75.5509 43.2534 73.9034 45.885 71.1379 47.7296C71.137 47.7302 71.1362 47.7307 71.1353 47.7313L70.0259 46.0672L71.1389 47.7289C71.1386 47.7291 71.1382 47.7294 71.1379 47.7296C67.0952 50.4369 61.5198 51.272 56.5615 50.4396C55.4721 50.2567 54.7373 49.2254 54.9202 48.1361C55.1031 47.0467 56.1344 46.3119 57.2237 46.4948C61.3983 47.1956 65.889 46.431 68.9129 44.4055L68.9165 44.4031C70.8495 43.1145 71.5509 41.6134 71.5509 40.3672C71.5509 39.1213 70.8499 37.6208 68.9181 36.3324C68.9188 36.3328 68.9194 36.3333 68.9201 36.3337L70.0259 34.6672L68.9165 36.3313C68.9171 36.3317 68.9176 36.332 68.9181 36.3324C65.8588 34.3033 61.3026 33.5409 57.1377 34.2705C56.0497 34.4611 55.0132 33.7336 54.8226 32.6456C54.632 31.5576 55.3595 30.5211 56.4475 30.3305ZM40.341 54.9473C44.1612 54.9473 48.088 55.8999 51.1379 57.9332C53.9049 59.7779 55.5535 62.4101 55.5535 65.2973C55.5535 68.1844 53.9049 70.8167 51.1379 72.6614C48.0741 74.7094 44.1488 75.6723 40.3285 75.6723C36.5072 75.6723 32.5808 74.7089 29.5167 72.6598L30.6285 70.9973L29.5191 72.6614C29.5183 72.6608 29.5175 72.6603 29.5167 72.6598C26.7511 70.8152 25.1035 68.1835 25.1035 65.2973C25.1035 62.4101 26.7521 59.7779 29.5191 57.9332L29.5239 57.93C32.5879 55.9001 36.5203 54.9473 40.341 54.9473ZM31.7353 61.2631C29.8043 62.5514 29.1035 64.0516 29.1035 65.2973C29.1035 66.5435 29.8049 68.0445 31.7379 69.3332L31.7403 69.3348C34.0095 70.8523 37.1165 71.6723 40.3285 71.6723C43.5406 71.6723 46.6475 70.8523 48.9167 69.3348L48.9191 69.3332C50.8521 68.0445 51.5535 66.5435 51.5535 65.2973C51.5535 64.0511 50.8521 62.55 48.9191 61.2614C46.669 59.7613 43.5625 58.9473 40.341 58.9473C37.1211 58.9473 34.0045 59.7606 31.7353 61.2631Z" fill="url(#paint0_linear_62_2757)"/>
<defs>
<linearGradient id="paint0_linear_62_2757" x1="81.2169" y1="87.5475" x2="-0.890388" y2="71.6629" gradientUnits="userSpaceOnUse">
<stop stop-color="#E5006D"/>
<stop offset="0.1671" stop-color="#C90171"/>
<stop offset="0.4658" stop-color="#961975"/>
<stop offset="0.714" stop-color="#6F1F78"/>
<stop offset="0.899" stop-color="#56207A"/>
<stop offset="1" stop-color="#4C217A"/>
</linearGradient>
</defs>
</svg>
