<svg width="80" height="80" viewBox="0 0 80 80" fill="none" xmlns="http://www.w3.org/2000/svg">
<path fill-rule="evenodd" clip-rule="evenodd" d="M48.1279 6.11912L48.1344 6.12344L68.0888 19.2153C72.3015 21.98 74.1804 26.6298 73.725 31.0758V50.1541C73.725 51.2587 72.8296 52.1541 71.725 52.1541C70.6205 52.1541 69.725 51.2587 69.725 50.1541V39.0564C69.2257 39.513 68.6803 39.9382 68.089 40.3263L63.5594 43.2981C63.6236 43.4941 63.6583 43.7035 63.6583 43.9209V59.3876C63.6583 61.9998 62.6612 64.5915 61.1482 66.6935C59.6353 68.7952 57.4959 70.561 55.0241 71.385L55.0223 71.3856L44.389 74.9189L44.3703 74.925C43.1781 75.3082 41.732 75.4709 40.3791 75.4709C39.028 75.4709 37.5851 75.3086 36.4029 74.9217L36.3943 74.9189L25.761 71.3856L25.7592 71.385C23.2873 70.561 21.1479 68.7952 19.6351 66.6935C18.122 64.5915 17.125 61.9998 17.125 59.3876L17.125 59.3833L17.1583 43.75C17.1587 43.5806 17.1801 43.4161 17.2201 43.2591L12.7317 40.3289C5.08949 35.3397 5.08945 24.1688 12.7317 19.1795L12.7337 19.1782L32.793 6.11636L32.7968 6.11388C34.9897 4.67352 37.7744 4.00472 40.4548 4.00002C43.1337 3.99533 45.9264 4.65378 48.1279 6.11912ZM69.7907 29.6438C69.7479 29.8067 69.725 29.9778 69.725 30.1541V30.8485C69.4297 33.2259 68.1529 35.4998 65.8945 36.982L45.9279 50.082L45.9263 50.083C44.5236 51.0052 42.5458 51.5292 40.4583 51.5292C38.3708 51.5292 36.3931 51.0052 34.9903 50.083L34.985 50.0795L14.9183 36.9795C9.69435 33.569 9.6939 25.9409 14.9171 22.5297L14.9183 22.5289L34.983 9.46355L34.9903 9.45876C36.3968 8.53413 38.3771 8.00367 40.4618 8.00002C42.547 7.99637 44.5181 8.51996 45.9156 9.45162L45.9279 9.45975L65.8943 22.5596C68.4524 24.2385 69.7514 26.9334 69.7907 29.6438ZM48.1237 53.4254L59.6583 45.8576V59.3876C59.6583 61.0088 59.022 62.8003 57.9018 64.3567C56.7817 65.9127 55.2885 67.0799 53.761 67.5896L53.7592 67.5902L43.1378 71.1196C42.4634 71.3348 41.4634 71.4709 40.3791 71.4709C39.2906 71.4709 38.302 71.3338 37.6508 71.1214L37.647 71.1201L27.0241 67.5902L21.1486 48.2813L21.1539 45.8271L32.793 53.4254L32.7955 53.427C34.9923 54.8704 37.7802 55.5292 40.4583 55.5292C43.1375 55.5292 45.9264 54.8699 48.1237 53.4254ZM21.1486 48.2826L27.0223 67.5896C25.4948 67.0799 24.0016 65.9127 22.8815 64.3567C21.7617 62.801 21.1255 61.0102 21.125 59.3896V59.3876L21.1486 48.2826Z" fill="url(#paint0_linear_62_2753)"/>
<defs>
<linearGradient id="paint0_linear_62_2753" x1="79.1558" y1="87.4804" x2="1.07517" y2="73.3395" gradientUnits="userSpaceOnUse">
<stop stop-color="#E5006D"/>
<stop offset="0.1671" stop-color="#C90171"/>
<stop offset="0.4658" stop-color="#961975"/>
<stop offset="0.714" stop-color="#6F1F78"/>
<stop offset="0.899" stop-color="#56207A"/>
<stop offset="1" stop-color="#4C217A"/>
</linearGradient>
</defs>
</svg>
