<svg width="80" height="80" viewBox="0 0 80 80" fill="none" xmlns="http://www.w3.org/2000/svg">
<path fill-rule="evenodd" clip-rule="evenodd" d="M56.0016 10.0008C56.0016 7.06291 58.397 4.66748 61.3349 4.66748H66.6681C69.606 4.66748 72.0015 7.06291 72.0015 10.0008V60.0008C72.0015 62.9387 69.606 65.3341 66.6681 65.3341H61.3349C58.397 65.3341 56.0016 62.9387 56.0016 60.0008V10.0008ZM61.3349 8.66748C60.6061 8.66748 60.0016 9.27205 60.0016 10.0008V60.0008C60.0016 60.7296 60.6061 61.3341 61.3349 61.3341H66.6681C67.3969 61.3341 68.0015 60.7296 68.0015 60.0008V10.0008C68.0015 9.27205 67.3969 8.66748 66.6681 8.66748H61.3349ZM31.9969 20.6352C31.9969 17.6973 34.3923 15.3019 37.3302 15.3019H42.6635C45.6014 15.3019 47.9968 17.6973 47.9968 20.6352V60.0018C47.9968 62.9398 45.6014 65.3352 42.6635 65.3352H37.3302C34.3923 65.3352 31.9969 62.9398 31.9969 60.0018V20.6352ZM37.3302 19.3019C36.6014 19.3019 35.9969 19.9064 35.9969 20.6352V60.0018C35.9969 60.7306 36.6014 61.3352 37.3302 61.3352H42.6635C43.3922 61.3352 43.9968 60.7306 43.9968 60.0018V20.6352C43.9968 19.9064 43.3922 19.3019 42.6635 19.3019H37.3302ZM8 31.268C8 28.3301 10.3954 25.9347 13.3333 25.9347H18.6666C21.6045 25.9347 23.9999 28.3301 23.9999 31.268V60.0013C23.9999 62.9392 21.6045 65.3347 18.6666 65.3347H13.3333C10.3954 65.3347 8 62.9392 8 60.0013V31.268ZM13.3333 29.9347C12.6046 29.9347 12 30.5392 12 31.268V60.0013C12 60.7301 12.6046 61.3347 13.3333 61.3347H18.6666C19.3953 61.3347 19.9999 60.7301 19.9999 60.0013V31.268C19.9999 30.5392 19.3953 29.9347 18.6666 29.9347H13.3333ZM8 73.3345C8 72.2299 8.89543 71.3345 10 71.3345H70C71.1046 71.3345 72 72.2299 72 73.3345C72 74.439 71.1046 75.3345 70 75.3345H10C8.89543 75.3345 8 74.439 8 73.3345Z" fill="url(#paint0_linear_62_2747)"/>
<defs>
<linearGradient id="paint0_linear_62_2747" x1="77.1415" y1="87.2088" x2="2.17794" y2="74.0516" gradientUnits="userSpaceOnUse">
<stop stop-color="#E5006D"/>
<stop offset="0.1671" stop-color="#C90171"/>
<stop offset="0.4658" stop-color="#961975"/>
<stop offset="0.714" stop-color="#6F1F78"/>
<stop offset="0.899" stop-color="#56207A"/>
<stop offset="1" stop-color="#4C217A"/>
</linearGradient>
</defs>
</svg>
