<svg width="80" height="80" viewBox="0 0 80 80" fill="none" xmlns="http://www.w3.org/2000/svg">
<path fill-rule="evenodd" clip-rule="evenodd" d="M37.6328 9C29.5326 9 22.9661 15.5665 22.9661 23.6667C22.9661 31.7668 29.5326 38.3333 37.6328 38.3333C45.733 38.3333 52.2995 31.7668 52.2995 23.6667C52.2995 15.5665 45.733 9 37.6328 9ZM18.9661 23.6667C18.9661 13.3574 27.3235 5 37.6328 5C47.9421 5 56.2995 13.3574 56.2995 23.6667C56.2995 33.976 47.9421 42.3333 37.6328 42.3333C27.3235 42.3333 18.9661 33.976 18.9661 23.6667ZM37.6334 52.3333C22.5344 52.3333 11 62.2356 11 73.6667C11 74.7712 10.1046 75.6667 9 75.6667C7.89543 75.6667 7 74.7712 7 73.6667C7 59.2977 21.1324 48.3333 37.6334 48.3333C38.738 48.3333 39.6334 49.2288 39.6334 50.3333C39.6334 51.4379 38.738 52.3333 37.6334 52.3333ZM58.2995 52.3333C53.5131 52.3333 49.6328 56.2136 49.6328 61C49.6328 65.7865 53.5131 69.6667 58.2995 69.6667C63.086 69.6667 66.9662 65.7865 66.9662 61C66.9662 56.2136 63.086 52.3333 58.2995 52.3333ZM45.6328 61C45.6328 54.0044 51.3039 48.3333 58.2995 48.3333C65.2951 48.3333 70.9662 54.0044 70.9662 61C70.9662 63.8182 70.0459 66.4214 68.4894 68.5255C68.6911 68.621 68.8802 68.7522 69.047 68.9191L72.3804 72.2524C73.1614 73.0335 73.1614 74.2998 72.3804 75.0809C71.5993 75.8619 70.333 75.8619 69.5519 75.0809L66.2186 71.7475C66.0517 71.5807 65.9205 71.3916 65.8249 71.1899C63.7209 72.7464 61.1177 73.6667 58.2995 73.6667C51.3039 73.6667 45.6328 67.9957 45.6328 61Z" fill="url(#paint0_linear_69_849)"/>
<defs>
<linearGradient id="paint0_linear_69_849" x1="78.2639" y1="87.541" x2="1.14292" y2="73.5895" gradientUnits="userSpaceOnUse">
<stop stop-color="#E5006D"/>
<stop offset="0.1671" stop-color="#C90171"/>
<stop offset="0.4658" stop-color="#961975"/>
<stop offset="0.714" stop-color="#6F1F78"/>
<stop offset="0.899" stop-color="#56207A"/>
<stop offset="1" stop-color="#4C217A"/>
</linearGradient>
</defs>
</svg>
