<svg width="80" height="80" viewBox="0 0 80 80" fill="none" xmlns="http://www.w3.org/2000/svg">
<path fill-rule="evenodd" clip-rule="evenodd" d="M40.0003 11.1665C24.0761 11.1665 11.167 24.0756 11.167 39.9998C11.167 55.9241 24.0761 68.8332 40.0003 68.8332C55.9245 68.8332 68.8337 55.9241 68.8337 39.9998C68.8337 24.0756 55.9245 11.1665 40.0003 11.1665ZM7.16699 39.9998C7.16699 21.8665 21.867 7.1665 40.0003 7.1665C58.1337 7.1665 72.8337 21.8665 72.8337 39.9998C72.8337 58.1332 58.1337 72.8332 40.0003 72.8332C21.867 72.8332 7.16699 58.1332 7.16699 39.9998ZM40.0003 19.4998C41.1049 19.4998 42.0003 20.3953 42.0003 21.4998V23.631H43.4594C48.4471 23.631 52.3044 27.8259 52.3044 32.8152C52.3044 33.9198 51.409 34.8152 50.3044 34.8152C49.1999 34.8152 48.3044 33.9198 48.3044 32.8152C48.3044 29.8495 46.0568 27.631 43.4594 27.631H42.0003V38.5695L46.9026 40.2726C48.2649 40.7554 49.7012 41.4656 50.7569 42.8124C51.8311 44.1827 52.3044 45.9415 52.3044 48.1085C52.3044 52.5802 48.8108 56.3677 44.3228 56.3677H42.0003V58.4998C42.0003 59.6044 41.1049 60.4998 40.0003 60.4998C38.8958 60.4998 38.0003 59.6044 38.0003 58.4998V56.3677H36.5836C31.596 56.3677 27.7386 52.1728 27.7386 47.1835C27.7386 46.079 28.634 45.1835 29.7386 45.1835C30.8432 45.1835 31.7386 46.079 31.7386 47.1835C31.7386 50.1492 33.9862 52.3677 36.5836 52.3677H38.0003V41.4145L33.1405 39.7262C31.7782 39.2433 30.3418 38.5331 29.2861 37.1864C28.2119 35.816 27.7386 34.0572 27.7386 31.8902C27.7386 27.4185 31.2323 23.631 35.7203 23.631H38.0003V21.4998C38.0003 20.3953 38.8958 19.4998 40.0003 19.4998ZM38.0003 27.631H35.7203C33.61 27.631 31.7386 29.4552 31.7386 31.8902C31.7386 33.4848 32.0824 34.2698 32.4342 34.7186C32.8039 35.1902 33.4011 35.5741 34.4711 35.9539C34.473 35.9546 34.4749 35.9553 34.4767 35.9559L38.0003 37.18V27.631ZM42.0003 42.804V52.3677H44.3228C46.4331 52.3677 48.3044 50.5435 48.3044 48.1085C48.3044 46.5139 47.9607 45.7289 47.6089 45.2801C47.2392 44.8085 46.6421 44.4247 45.5723 44.0449C45.5703 44.0442 45.5683 44.0435 45.5663 44.0428L42.0003 42.804Z" fill="url(#paint0_linear_62_2749)"/>
<defs>
<linearGradient id="paint0_linear_62_2749" x1="78.1074" y1="83.8673" x2="1.69389" y2="69.0588" gradientUnits="userSpaceOnUse">
<stop stop-color="#E5006D"/>
<stop offset="0.1671" stop-color="#C90171"/>
<stop offset="0.4658" stop-color="#961975"/>
<stop offset="0.714" stop-color="#6F1F78"/>
<stop offset="0.899" stop-color="#56207A"/>
<stop offset="1" stop-color="#4C217A"/>
</linearGradient>
</defs>
</svg>
