<svg width="80" height="80" viewBox="0 0 80 80" fill="none" xmlns="http://www.w3.org/2000/svg">
<path fill-rule="evenodd" clip-rule="evenodd" d="M42.8839 9.55222C42.4174 10.0152 42 11.051 42 13.9994V16.5345H71.3333V13.9994C71.3333 11.051 70.9159 10.0152 70.4495 9.55222C69.9775 9.08381 68.9181 8.66602 65.9333 8.66602H47.4C44.4152 8.66602 43.3558 9.08381 42.8839 9.55222ZM75.3333 13.9994C75.3333 11.0811 75.0174 8.45019 73.2672 6.71314C71.5225 4.98156 68.8819 4.66602 65.9333 4.66602H47.4C44.4514 4.66602 41.8108 4.98156 40.0661 6.71314C38.3159 8.45019 38 11.0811 38 13.9994V27.6994C38 30.6176 38.3159 33.2485 40.0661 34.9856C41.8108 36.7171 44.4514 37.0327 47.4 37.0327H65.9333C68.8819 37.0327 71.5225 36.7171 73.2672 34.9856C75.0174 33.2485 75.3333 30.6176 75.3333 27.6994V13.9994ZM71.3333 20.5345H42V27.6994C42 30.6477 42.4174 31.6835 42.8839 32.1465C43.3558 32.6149 44.4152 33.0327 47.4 33.0327H65.9333C68.9181 33.0327 69.9775 32.6149 70.4495 32.1465C70.9159 31.6835 71.3333 30.6477 71.3333 27.6994V20.5345ZM26.2711 8.99063C16.2567 10.7496 8.66406 19.4766 8.66406 30.0007C8.66406 31.1052 7.76863 32.0007 6.66406 32.0007C5.55949 32.0007 4.66406 31.1052 4.66406 30.0007C4.66406 15.9961 15.9928 4.66732 29.9974 4.66732C30.7179 4.66732 31.3828 5.0549 31.7378 5.68192C32.0928 6.30893 32.0831 7.07844 31.7124 7.6963L28.2124 13.5296C27.6441 14.4768 26.4156 14.7839 25.4685 14.2156C24.5213 13.6474 24.2142 12.4188 24.7824 11.4717L26.2711 8.99063ZM9.55054 47.8856C9.08408 48.3485 8.66667 49.3843 8.66667 52.3327V54.8678H38V52.3327C38 49.3843 37.5826 48.3485 37.1161 47.8856C36.6442 47.4171 35.5848 46.9993 32.6 46.9993H14.0667C11.0819 46.9993 10.0225 47.4171 9.55054 47.8856ZM42 52.3327C42 49.4144 41.6841 46.7835 39.9339 45.0465C38.1892 43.3149 35.5486 42.9993 32.6 42.9993H14.0667C11.1181 42.9993 8.47751 43.3149 6.7328 45.0465C4.98259 46.7835 4.66667 49.4144 4.66667 52.3327V66.0327C4.66667 68.951 4.98259 71.5818 6.7328 73.3189C8.47751 75.0505 11.1181 75.366 14.0667 75.366H32.6C35.5486 75.366 38.1892 75.0505 39.9339 73.3189C41.6841 71.5818 42 68.951 42 66.0327V52.3327ZM38 58.8678H8.66667V66.0327C8.66667 68.9811 9.08408 70.0169 9.55053 70.4798C10.0225 70.9482 11.0819 71.366 14.0667 71.366H32.6C35.5848 71.366 36.6442 70.9482 37.1161 70.4798C37.5826 70.0169 38 68.9811 38 66.0327V58.8678ZM73.3294 48.0013C74.434 48.0013 75.3294 48.8967 75.3294 50.0013C75.3294 64.0059 64.0007 75.3346 49.9961 75.3346C49.2756 75.3346 48.6107 74.9471 48.2557 74.32C47.9007 73.693 47.9104 72.9235 48.2811 72.3056L51.7811 66.4723C52.3494 65.5252 53.5779 65.218 54.525 65.7863C55.4722 66.3546 55.7793 67.5831 55.211 68.5303L53.7224 71.0113C63.7368 69.2523 71.3294 60.5253 71.3294 50.0013C71.3294 48.8967 72.2249 48.0013 73.3294 48.0013Z" fill="url(#paint0_linear_69_846)"/>
<defs>
<linearGradient id="paint0_linear_69_846" x1="81.0088" y1="87.2459" x2="-1.22858" y2="71.3157" gradientUnits="userSpaceOnUse">
<stop stop-color="#E5006D"/>
<stop offset="0.1671" stop-color="#C90171"/>
<stop offset="0.4658" stop-color="#961975"/>
<stop offset="0.714" stop-color="#6F1F78"/>
<stop offset="0.899" stop-color="#56207A"/>
<stop offset="1" stop-color="#4C217A"/>
</linearGradient>
</defs>
</svg>
